<?xml version="1.0" standalone="no"?>
<!DOCTYPE svg PUBLIC "-//W3C//DTD SVG 20010904//EN"
 "http://www.w3.org/TR/2001/REC-SVG-20010904/DTD/svg10.dtd">
<svg version="1.0" xmlns="http://www.w3.org/2000/svg"
 width="436.000000pt" height="436.000000pt" viewBox="0 0 436.000000 436.000000"
 preserveAspectRatio="xMidYMid meet">
<metadata>
Created by potrace 1.11, written by Peter Selinger 2001-2013
</metadata>
<g transform="translate(0.000000,436.000000) scale(0.100000,-0.100000)"
fill="#000000" stroke="none">
<path d="M2733 4249 c-60 -23 -133 -97 -133 -135 0 -13 1 -25 2 -26 1 -2 -3
-12 -9 -23 -11 -20 -21 -20 -802 -19 l-791 0 0 -49 c0 -61 35 -101 98 -112 23
-4 42 -12 43 -18 0 -7 1 -90 1 -184 l1 -173 1038 0 1037 0 0 182 -1 181 46 14
c61 18 87 52 87 113 l0 47 -117 -1 c-146 -2 -152 -1 -148 30 1 13 -6 40 -15
61 -51 111 -206 162 -337 112z"/>
<path d="M1198 3377 c-18 -4 -42 -9 -52 -12 -33 -8 -85 -49 -113 -88 -55 -79
-37 -179 44 -246 74 -61 37 -59 1094 -60 1074 -1 1027 -4 1108 65 120 103 78
271 -81 329 -51 19 -89 19 -1010 20 -526 0 -971 -3 -990 -8z"/>
<path d="M1146 2841 c-2 -3 -3 -351 -3 -773 l0 -768 133 0 c74 0 244 -1 379
-1 135 0 541 1 904 1 l659 0 -2 773 -1 772 -1033 1 c-568 0 -1035 -2 -1036 -5z
m1057 -219 c28 -30 180 -436 213 -567 4 -16 8 -32 9 -35 9 -28 18 -115 17
-154 -4 -130 -89 -266 -187 -299 -44 -15 -124 -13 -170 5 -40 15 -107 79 -100
96 2 7 0 10 -5 7 -22 -13 -67 130 -67 211 0 92 61 299 173 588 69 176 80 190
117 148z"/>
<path d="M1990 1656 c0 -2 7 -9 15 -16 13 -11 14 -10 9 4 -5 14 -24 23 -24 12z"/>
<path d="M1193 1167 c-54 -11 -94 -31 -132 -67 -104 -100 -68 -249 78 -318 33
-16 114 -17 1021 -19 904 -2 989 -1 1033 15 179 64 210 257 57 353 -69 44 -58
43 -1062 44 -526 0 -973 -3 -995 -8z"/>
<path d="M1132 585 c0 -27 -1 -111 -1 -185 l-1 -136 -26 -2 c-36 -3 -80 -31
-93 -59 -6 -13 -11 -42 -11 -63 0 -35 3 -40 23 -40 37 0 1980 -1 2160 0 l167
0 0 40 c0 75 -45 123 -115 123 l-25 0 -1 156 c0 86 -2 170 -2 186 l-2 30
-1036 0 -1037 1 0 -51z"/>
</g>
</svg>
